<?xml version="1.0" standalone="no"?>
<!DOCTYPE svg PUBLIC "-//W3C//DTD SVG 20010904//EN"
 "http://www.w3.org/TR/2001/REC-SVG-20010904/DTD/svg10.dtd">
<svg version="1.0" xmlns="http://www.w3.org/2000/svg"
 width="254.000000pt" height="255.000000pt" viewBox="0 0 254.000000 255.000000"
 preserveAspectRatio="xMidYMid meet">
<metadata>
Created by potrace 1.10, written by Peter Selinger 2001-2011
</metadata>
<g transform="translate(0.000000,255.000000) scale(0.100000,-0.100000)"
fill="#000000" stroke="none">
<path d="M1085 2506 c-416 -70 -750 -314 -934 -682 -91 -183 -126 -337 -126
-554 0 -268 64 -479 213 -705 60 -91 238 -269 327 -327 228 -150 437 -213 705
-213 352 0 632 116 881 364 184 185 291 382 346 641 25 118 25 362 0 480 -55
259 -162 456 -346 641 -185 184 -383 291 -636 344 -107 23 -327 28 -430 11z
m337 -523 c85 -40 151 -106 191 -191 28 -60 32 -77 32 -157 0 -80 -4 -97 -32
-157 -40 -85 -106 -151 -191 -191 -61 -29 -76 -32 -162 -32 -86 0 -101 3 -162
32 -244 115 -303 426 -117 615 82 83 176 119 294 115 66 -3 94 -9 147 -34z
m64 -829 c232 -48 459 -207 546 -384 42 -85 56 -147 39 -179 l-12 -21 -785 0
-784 0 -12 25 c-29 64 45 220 157 331 137 136 333 224 550 248 66 7 220 -3
301 -20z"/>
</g>
</svg>
