<svg xmlns="http://www.w3.org/2000/svg" width="200" height="169" viewBox="0 0 200 169" version="1.1"><path d="" stroke="none" fill="#080404" fill-rule="evenodd"/><path d="M 87.071 1.752 C 85.185 2.713, 82.308 5.170, 80.678 7.211 C 78.571 9.848, 77.575 12.363, 77.235 15.906 C 76.972 18.648, 77.022 21.952, 77.348 23.249 C 77.856 25.275, 78.431 25.548, 81.448 25.196 C 84.150 24.880, 85.670 25.386, 88.056 27.393 C 89.760 28.827, 92.328 30.295, 93.763 30.655 C 95.203 31.017, 98.178 30.681, 100.403 29.905 C 102.931 29.024, 105.286 27.232, 106.717 25.102 C 108.242 22.832, 109 20.229, 109 17.258 C 109 13.654, 109.378 12.714, 111 12.290 C 112.100 12.002, 113 11.472, 113 11.111 C 113 10.751, 111.666 8.837, 110.035 6.858 C 108.404 4.880, 105.523 2.527, 103.634 1.630 C 101.744 0.734, 98.016 0.001, 95.349 0.002 C 92.682 0.002, 88.957 0.790, 87.071 1.752 M 81.095 34.574 C 79.413 35.989, 77.569 38.802, 76.998 40.824 C 76.427 42.846, 74.169 52.072, 71.980 61.328 C 69.791 70.583, 68.002 79.133, 68.004 80.328 C 68.006 81.522, 68.882 83.934, 69.950 85.686 C 71.019 87.439, 72.829 89.373, 73.974 89.986 C 75.118 90.598, 79.530 91.467, 83.777 91.917 C 91.145 92.696, 90.868 92.740, 77.750 92.867 L 64 93 64 69.500 L 64 46 32 46 L 0 46 0 70 L 0 94 15.861 94 L 31.723 94 31.249 96.477 C 30.968 97.946, 31.636 100.412, 32.888 102.534 C 34.050 104.503, 34.997 106.426, 34.993 106.807 C 34.989 107.188, 33.353 108.613, 31.356 109.973 C 29.360 111.333, 25.355 115.383, 22.456 118.973 C 19.557 122.563, 15.119 128.854, 12.593 132.954 C 10.067 137.054, 8.007 140.879, 8.015 141.454 C 8.024 142.029, 8.448 143.160, 8.958 143.967 C 9.491 144.808, 12.103 145.661, 15.087 145.967 L 20.287 146.500 21.437 151.046 C 22.070 153.547, 23.842 157.237, 25.375 159.247 C 26.908 161.258, 30.465 164.049, 33.278 165.451 C 36.838 167.225, 40.014 168, 43.728 168 C 46.663 168, 50.737 167.302, 52.782 166.449 C 54.827 165.596, 58.017 163.459, 59.872 161.699 C 61.727 159.940, 64.079 156.700, 65.100 154.500 C 66.121 152.300, 66.966 149.488, 66.978 148.250 L 67 146 95.040 146 C 120.668 146, 123.399 145.836, 126.790 144.092 C 128.830 143.042, 131.671 140.904, 133.102 139.342 C 134.534 137.779, 138.911 131.931, 142.830 126.346 C 146.748 120.761, 151.090 114.056, 152.477 111.447 C 153.865 108.837, 154.995 105.307, 154.988 103.601 C 154.982 101.895, 151.839 93.580, 148.004 85.122 C 144.169 76.663, 140.519 69.126, 139.893 68.372 C 139.267 67.617, 137.101 67, 135.078 67 C 131.433 67, 131.405 66.969, 131.830 63.331 C 132.149 60.596, 131.795 59.323, 130.438 58.331 C 129.183 57.413, 125.183 56.999, 117.559 56.997 L 106.500 56.995 103.631 48.747 C 102.053 44.211, 100.118 39.100, 99.332 37.389 C 98.547 35.677, 96.779 33.765, 95.405 33.139 C 94.030 32.512, 90.937 32, 88.530 32 C 85.287 32, 83.361 32.667, 81.095 34.574 M 86.416 50.136 C 86.030 50.761, 87.774 55.598, 90.293 60.886 C 92.812 66.174, 95.075 71.190, 95.322 72.034 C 95.657 73.177, 99.558 74.165, 110.636 75.909 C 118.811 77.196, 126.928 78.903, 128.673 79.702 C 130.505 80.541, 132.537 82.612, 133.483 84.605 C 135.105 88.023, 135.059 88.243, 128.502 108.777 C 124.863 120.175, 121.212 130.533, 120.390 131.795 C 119.568 133.057, 117.711 134.540, 116.264 135.090 C 114.443 135.782, 112.791 135.742, 110.902 134.959 C 109.400 134.337, 107.604 132.459, 106.911 130.785 C 105.759 128.004, 106.134 126.335, 111.257 111.469 C 116.778 95.447, 116.830 95.189, 114.682 94.612 C 113.482 94.291, 111.305 94.021, 109.844 94.014 C 107.858 94.003, 105.460 95.780, 100.344 101.052 C 96.580 104.930, 92.713 109.536, 91.750 111.286 C 90.787 113.037, 90 116.178, 90 118.267 C 90 120.355, 90.697 123.737, 91.549 125.782 C 92.401 127.827, 94.742 131.188, 96.752 133.250 L 100.406 137 111.269 137 C 117.243 137, 122.967 136.553, 123.987 136.007 C 125.008 135.460, 129.392 129.948, 133.729 123.757 C 138.066 117.566, 142.602 110.872, 143.808 108.882 C 145.013 106.892, 145.970 104.417, 145.934 103.382 C 145.897 102.347, 143.283 95.875, 140.124 89 L 134.381 76.500 128.953 76.189 C 125.687 76.003, 122.797 75.221, 121.700 74.229 C 120.697 73.321, 120.087 71.773, 120.345 70.789 C 120.772 69.156, 119.918 69, 110.561 69 C 102.053 69, 100.047 68.702, 98.765 67.250 C 97.915 66.287, 95.366 61.788, 93.099 57.250 C 90.832 52.712, 88.559 49, 88.048 49 C 87.536 49, 86.802 49.511, 86.416 50.136 M 8 56.500 L 8 59 31.500 59 L 55 59 55 56.500 L 55 54 31.500 54 L 8 54 8 56.500 M 151.942 56.004 C 150.534 56.400, 148.402 57.250, 147.202 57.892 C 146.002 58.534, 144.301 60.451, 143.422 62.151 C 142.395 64.136, 142.041 66.403, 142.431 68.484 C 142.765 70.267, 143.834 72.445, 144.806 73.325 C 145.778 74.204, 148.230 75.616, 150.254 76.462 C 152.279 77.308, 154.400 78, 154.968 78 C 155.614 78, 156 73.913, 156 67.059 C 156 61.041, 155.662 55.930, 155.250 55.701 C 154.838 55.472, 153.349 55.608, 151.942 56.004 M 8 76 L 8 85 31.500 85 L 55 85 55 76 L 55 67 45 67 L 35 67 35 70.500 C 35 73.833, 34.833 74, 31.500 74 C 28.167 74, 28 73.833, 28 70.500 L 28 67 18 67 L 8 67 8 76 M 49.166 108.640 C 49.459 110.174, 50.746 110.599, 56.510 111.063 C 60.355 111.372, 64.485 112.251, 65.690 113.015 C 66.894 113.780, 68.644 116.102, 69.579 118.175 C 70.850 120.994, 71.146 123.588, 70.754 128.472 C 70.291 134.246, 70.435 135, 71.999 135 C 72.987 135, 74.033 134.008, 74.370 132.750 C 74.701 131.512, 74.971 128.025, 74.970 125 C 74.968 121.145, 74.299 118.332, 72.734 115.594 C 71.505 113.446, 69.232 110.748, 67.682 109.598 C 65.512 107.989, 63.021 107.425, 56.838 107.144 C 49.450 106.809, 48.839 106.928, 49.166 108.640 M 163.324 111.381 C 161.027 112.131, 157.595 113.706, 155.695 114.879 C 153.796 116.053, 150.348 119.069, 148.032 121.581 C 145.716 124.093, 142.926 128.174, 141.831 130.649 C 140.736 133.125, 139.589 137.583, 139.282 140.556 C 138.908 144.177, 139.140 146.464, 139.984 147.481 C 140.678 148.317, 142.299 149, 143.587 149 C 144.880 149, 146.394 148.133, 146.965 147.066 C 147.534 146.002, 148 143.615, 148 141.762 C 148 139.909, 149.160 136.065, 150.578 133.220 C 151.996 130.375, 154.583 126.842, 156.328 125.369 C 158.072 123.896, 161.300 121.870, 163.500 120.867 C 166.061 119.700, 169.839 119.044, 174 119.044 C 178.256 119.044, 181.881 119.689, 184.500 120.913 C 186.700 121.942, 189.985 123.909, 191.800 125.285 C 193.783 126.788, 195.882 127.582, 197.061 127.274 C 198.139 126.992, 199.298 125.661, 199.636 124.315 C 200.098 122.475, 199.546 121.136, 197.405 118.901 C 195.841 117.268, 192.121 114.739, 189.139 113.279 C 184.910 111.211, 181.931 110.559, 175.608 110.322 C 170.646 110.135, 165.880 110.546, 163.324 111.381 M 166.670 122.623 C 163.545 123.583, 160.298 125.650, 157.470 128.477 C 154.330 131.617, 152.644 134.416, 151.479 138.423 C 150.148 143.002, 150.057 144.959, 150.971 149.360 C 151.583 152.308, 153.430 156.550, 155.075 158.787 C 156.845 161.194, 160.172 163.904, 163.229 165.427 C 166.943 167.277, 169.952 167.994, 173.946 167.978 C 177.169 167.965, 181.179 167.186, 183.500 166.121 C 185.700 165.112, 188.802 162.984, 190.393 161.393 C 191.984 159.802, 194.112 156.700, 195.121 154.500 C 196.232 152.078, 196.965 148.159, 196.978 144.566 C 196.993 140.553, 196.323 137.233, 194.910 134.315 C 193.761 131.940, 191.173 128.635, 189.160 126.970 C 187.147 125.305, 183.281 123.280, 180.568 122.471 C 177.856 121.662, 174.706 121.031, 173.568 121.070 C 172.431 121.108, 169.327 121.807, 166.670 122.623 M 166.873 133.684 C 165.428 134.580, 163.515 136.550, 162.623 138.061 C 161.730 139.572, 161 142.883, 161 145.419 C 161 149.236, 161.565 150.646, 164.284 153.613 C 166.877 156.442, 168.527 157.305, 172.119 157.710 C 175.248 158.063, 177.671 157.705, 179.879 156.563 C 181.644 155.650, 183.967 153.462, 185.040 151.701 C 186.187 149.821, 186.994 146.698, 186.996 144.132 C 186.999 140.390, 186.444 139.209, 183.118 135.882 C 179.658 132.423, 178.705 132.003, 174.368 132.027 C 171.653 132.041, 168.338 132.774, 166.873 133.684 M 31 148.015 C 31 149.123, 32.478 151.642, 34.284 153.613 C 36.877 156.442, 38.527 157.305, 42.119 157.710 C 45.248 158.063, 47.671 157.705, 49.879 156.563 C 51.644 155.650, 53.967 153.462, 55.040 151.701 C 56.114 149.941, 56.994 147.938, 56.996 147.250 C 56.999 146.314, 53.735 146, 44 146 C 31.635 146, 31 146.098, 31 148.015" stroke="none" fill="#040404" fill-rule="evenodd"/></svg>